<svg id="Layer_1" data-name="Layer 1" xmlns="http://www.w3.org/2000/svg" xmlns:xlink="http://www.w3.org/1999/xlink" viewBox="0 0 270.11 271.99"><defs><style>.cls-1{fill:#0065ff;}.cls-2{fill:none;}.cls-3{fill:url(#linear-gradient);}.cls-4{fill:#3dc7dc;}.cls-5{fill:#2684ff;}.cls-6{fill:url(#linear-gradient-2);}.cls-7{fill:url(#linear-gradient-3);}</style><linearGradient id="linear-gradient" x1="73.19" y1="215.43" x2="233.7" y2="54.91" gradientUnits="userSpaceOnUse"><stop offset="0" stop-color="#e5e8ec"/><stop offset="0.36" stop-color="#e7eaee"/><stop offset="0.57" stop-color="#f0f2f4"/><stop offset="0.71" stop-color="#fafbfc"/></linearGradient><linearGradient id="linear-gradient-2" x1="148.02" y1="191.95" x2="133.7" y2="177.63" gradientTransform="matrix(1, 0, 0, -1, 0, 271.34)" gradientUnits="userSpaceOnUse"><stop offset="0.18" stop-color="#0052cc"/><stop offset="1" stop-color="#2684ff"/></linearGradient><linearGradient id="linear-gradient-3" x1="151.82" y1="150.8" x2="166.11" y2="165.09" xlink:href="#linear-gradient-2"/></defs><title>Artboard 1</title><path class="cls-1" d="M212.91,34.18l-37.08,202H160.56c-8,0-14.09-5.42-14.72-13.2s-6.68-13.2-14.72-13.2h-57c-8,0-16.08,5.42-19.57,13.2S43,236.16,35,236.16H19.7l37.09-202Z"/><path class="cls-2" d="M250,236.16H234.78c-8,0-16.08-5.42-19.57-13.2s-11.52-13.2-19.57-13.2h-57c-8,0-14.09,5.42-14.72,13.2s-6.68,13.2-14.72,13.2H93.92l-37.08-202H213Z"/><path class="cls-3" d="M93.92,236.16h15.27c8,0,14.09-5.42,14.72-13.2s6.68-13.2,14.72-13.2h57c8,0,16.08,5.42,19.57,13.2s11.52,13.2,19.57,13.2H250L213,34.18H56.84Z"/><path class="cls-4" d="M190.37,167.83l-15.56-13.14a1,1,0,0,0-1.63.94l1.18,6.41H130.12a1,1,0,0,0-1,1.18l2,10.85a1,1,0,0,0,1,.82h44.61l1.29,7a1,1,0,0,0,1.76.45l10.73-13.14A1,1,0,0,0,190.37,167.83Z"/><g id="Layer_2" data-name="Layer 2"><g id="Blue"><path class="cls-5" d="M182.61,98.09,152.75,68.23l-2.89-2.89h0L127.39,87.81h0L117.11,98.09a2.75,2.75,0,0,0,0,3.88l20.53,20.53,12.22,12.22,22.47-22.47.35-.35,9.93-9.93A2.75,2.75,0,0,0,182.61,98.09Zm-32.75,12.2L139.6,100l10.26-10.26L160.12,100Z"/><path class="cls-6" d="M149.86,89.77a17.27,17.27,0,0,1-.07-24.35L127.34,87.86l12.22,12.22Z"/><path class="cls-7" d="M160.14,100l-10.28,10.28a17.27,17.27,0,0,1,0,24.42h0l22.5-22.5Z"/></g></g></svg>