<svg id="Layer_1" enable-background="new 0 0 512 512" height="512" viewBox="0 0 512 512" width="512" xmlns="http://www.w3.org/2000/svg"><g><g><path d="m212 496h176c17.673 0 32-14.327 32-32v-240c0-17.673-14.327-32-32-32h-128l-80 72v200c0 17.673 14.327 32 32 32z" fill="#d7e6f0"/></g><g><g><path d="m364 272h-64c-8.837 0-16-7.163-16-16 0-8.837 7.163-16 16-16h64c8.837 0 16 7.163 16 16 0 8.837-7.163 16-16 16z" fill="#a5c3dc"/></g><g><path d="m364 336h-128c-8.837 0-16-7.163-16-16 0-8.837 7.163-16 16-16h128c8.837 0 16 7.163 16 16 0 8.837-7.163 16-16 16z" fill="#a5c3dc"/></g><g><path d="m364 400h-128c-8.837 0-16-7.163-16-16 0-8.837 7.163-16 16-16h128c8.837 0 16 7.163 16 16 0 8.837-7.163 16-16 16z" fill="#a5c3dc"/></g><g><path d="m364 464h-128c-8.837 0-16-7.163-16-16 0-8.837 7.163-16 16-16h128c8.837 0 16 7.163 16 16 0 8.837-7.163 16-16 16z" fill="#a5c3dc"/></g></g><g><path d="m148 400h176c17.673 0 32-14.327 32-32v-240c0-17.673-14.327-32-32-32h-128l-80 72v200c0 17.673 14.327 32 32 32z" fill="#00d2d2"/></g><g><g><path d="m300 160h-64c-8.837 0-16-7.163-16-16 0-8.837 7.163-16 16-16h64c8.837 0 16 7.163 16 16 0 8.837-7.163 16-16 16z" fill="#289bc3"/></g><g><path d="m300 224h-128c-8.837 0-16-7.163-16-16 0-8.837 7.163-16 16-16h128c8.837 0 16 7.163 16 16 0 8.837-7.163 16-16 16z" fill="#289bc3"/></g><g><path d="m300 288h-128c-8.837 0-16-7.163-16-16 0-8.837 7.163-16 16-16h128c8.837 0 16 7.163 16 16 0 8.837-7.163 16-16 16z" fill="#289bc3"/></g><g><path d="m300 352h-128c-8.837 0-16-7.163-16-16 0-8.837 7.163-16 16-16h128c8.837 0 16 7.163 16 16 0 8.837-7.163 16-16 16z" fill="#289bc3"/></g></g><g><path d="m84 320h176c17.673 0 32-14.327 32-32v-240c0-17.673-14.327-32-32-32h-128l-80 72v200c0 17.673 14.327 32 32 32z" fill="#d7e6f0"/></g><g><path d="m132 16v40c0 17.673-14.327 32-32 32h-48z" fill="#a5c3dc"/></g><g><path d="m236 88h-64c-8.837 0-16-7.163-16-16 0-8.837 7.163-16 16-16h64c8.837 0 16 7.163 16 16 0 8.837-7.163 16-16 16z" fill="#a5c3dc"/></g><g><path d="m236 152h-128c-8.837 0-16-7.163-16-16 0-8.837 7.163-16 16-16h128c8.837 0 16 7.163 16 16 0 8.837-7.163 16-16 16z" fill="#a5c3dc"/></g><g><path d="m236 216h-128c-8.837 0-16-7.163-16-16 0-8.837 7.163-16 16-16h128c8.837 0 16 7.163 16 16 0 8.837-7.163 16-16 16z" fill="#a5c3dc"/></g><g><path d="m236 280h-128c-8.837 0-16-7.163-16-16 0-8.837 7.163-16 16-16h128c8.837 0 16 7.163 16 16 0 8.837-7.163 16-16 16z" fill="#a5c3dc"/></g><path d="m450.426 408h-14.426v-296c0-8.837-7.163-16-16-16s-16 7.163-16 16v296h-14.426c-5.287 0-9.574 4.286-9.574 9.574 0 2.416.914 4.743 2.558 6.514l28.479 30.671c2.314 2.492 5.562 3.908 8.962 3.908s6.648-1.416 8.962-3.908l28.479-30.671c1.644-1.771 2.558-4.098 2.558-6.514.002-5.288-4.284-9.574-9.572-9.574z" fill="#00d2d2"/></g></svg>